<svg width="18" height="16" viewBox="0 0 18 16" fill="none" xmlns="http://www.w3.org/2000/svg">
<path d="M13.3104 9.32171C12.0994 7.85949 10.5686 7.0542 8.99998 7.0542C7.43138 7.0542 5.90057 7.85949 4.68958 9.32171C3.60104 10.636 2.95117 12.2924 2.95117 13.7526C2.95117 14.4619 3.16802 15.0022 3.59566 15.3585C4.01774 15.7102 4.575 15.8292 5.19671 15.8292C5.85824 15.8292 6.5928 15.6944 7.31452 15.562C7.94519 15.4464 8.54087 15.3371 9.00002 15.3371C9.3963 15.3371 9.95504 15.4408 10.5465 15.5506C11.9287 15.8072 13.4954 16.098 14.4004 15.3456C14.8307 14.9878 15.0488 14.4519 15.0488 13.7526C15.0489 12.2924 14.399 10.636 13.3104 9.32171Z" fill="#2E4960"/>
<path d="M13.4342 1.38148C12.9911 0.728176 12.3566 0.353516 11.6934 0.353516C11.0301 0.353516 10.3956 0.728211 9.95252 1.38148C9.54548 1.98164 9.32129 2.76977 9.32129 3.60072C9.32129 4.43168 9.54545 5.21981 9.95252 5.81996C10.3956 6.47323 11.0301 6.84793 11.6934 6.84793C12.3566 6.84793 12.9911 6.47323 13.4342 5.81996C13.8412 5.21981 14.0654 4.43168 14.0654 3.60072C14.0654 2.76977 13.8413 1.9816 13.4342 1.38148Z" fill="#2E4960"/>
<path d="M17.8956 6.47846C17.717 5.87082 17.3341 5.4293 16.8175 5.23527C16.4018 5.07914 15.9326 5.10561 15.4963 5.30984C14.8949 5.59123 14.4034 6.17229 14.1478 6.904C13.9389 7.50193 13.9129 8.13394 14.0745 8.68368C14.2531 9.29132 14.636 9.73284 15.1526 9.92687C15.3314 9.99402 15.52 10.0274 15.7117 10.0274C15.9657 10.0274 16.2252 9.96871 16.4739 9.8523C17.0753 9.57091 17.5668 8.98985 17.8224 8.25818V8.25814C18.0312 7.66024 18.0572 7.0282 17.8956 6.47846Z" fill="#2E4960"/>
<path d="M8.04747 1.38148C7.60436 0.728176 6.96989 0.353516 6.30663 0.353516C5.64338 0.353516 5.00888 0.728211 4.5658 1.38148C4.15876 1.98164 3.93457 2.76977 3.93457 3.60072C3.93457 4.43168 4.15873 5.21981 4.5658 5.81996C5.00891 6.47327 5.64338 6.84796 6.30663 6.84796C6.96989 6.84796 7.60436 6.47327 8.04747 5.81996C8.4545 5.21981 8.6787 4.43171 8.6787 3.60072C8.67866 2.76977 8.4545 1.9816 8.04747 1.38148Z" fill="#2E4960"/>
<path d="M3.85264 6.90395C3.59702 6.17224 3.1055 5.59121 2.50419 5.30982C2.06779 5.1056 1.59853 5.07916 1.18288 5.23525C0.66629 5.42932 0.283404 5.87084 0.104775 6.47845C-0.0568386 7.02819 -0.0307878 7.66023 0.178075 8.25813V8.25816C0.433732 8.98987 0.925216 9.5709 1.52653 9.85229C1.77529 9.96869 2.03471 10.0274 2.28879 10.0274C2.48046 10.0274 2.66911 9.99397 2.84784 9.92686C3.3645 9.73279 3.74735 9.29127 3.92598 8.68366C4.08752 8.13396 4.06147 7.50192 3.85264 6.90395Z" fill="#2E4960"/>
</svg>
