<svg width="59" height="59" viewBox="0 0 59 59" fill="none" xmlns="http://www.w3.org/2000/svg">
<g clip-path="url(#clip0_1_2848)">
<path d="M0 16.8593V53.9399C0 55.5845 1.33304 56.9181 2.97767 56.9185H56.0221C57.6668 56.9179 58.9998 55.5845 58.9998 53.9399V16.8593H0Z" fill="white"/>
<path d="M56.0223 5.12061H2.97767C1.33304 5.12101 0 6.45445 0 8.09928V17.9236H59V8.09928C59 6.45445 57.6669 5.12101 56.0223 5.12061Z" fill="#FF9F00"/>
<path d="M9.79718 2.0816C8.98098 2.081 8.31896 2.74222 8.31836 3.55843V3.55943V8.87419C8.33959 9.69059 9.01882 10.3354 9.83523 10.314C10.6218 10.2935 11.2546 9.66076 11.275 8.87419V3.56744C11.2794 2.75123 10.6214 2.08601 9.80519 2.0816C9.80259 2.0816 9.79979 2.0816 9.79718 2.0816Z" fill="#2E4960"/>
<path d="M22.9329 2.0816C22.1167 2.081 21.4547 2.74222 21.4541 3.55843V3.55943V8.87419C21.4753 9.69059 22.1546 10.3354 22.971 10.314C23.7575 10.2935 24.3903 9.66076 24.4107 8.87419V3.56744C24.4152 2.75123 23.7571 2.08601 22.9409 2.0816C22.9383 2.0816 22.9357 2.0816 22.9329 2.0816Z" fill="#2E4960"/>
<path d="M36.0674 2.0816C35.2512 2.0816 34.5896 2.74322 34.5896 3.55943V8.87419C34.6108 9.69059 35.2899 10.3354 36.1065 10.3142C36.893 10.2937 37.526 9.66096 37.5464 8.87419V3.56744C37.5509 2.75123 36.8928 2.08601 36.0766 2.0816C36.0734 2.0816 36.0704 2.0816 36.0674 2.0816Z" fill="#2E4960"/>
<path d="M49.2025 2.08161C48.3863 2.0804 47.7237 2.74122 47.7227 3.55743V3.55943V8.87419C47.7439 9.69059 48.4229 10.3354 49.2395 10.3142C50.0261 10.2937 50.6591 9.66096 50.6795 8.87419V3.56744C50.6839 2.75123 50.0259 2.08601 49.2097 2.08161C49.2071 2.08161 49.2049 2.08161 49.2025 2.08161Z" fill="#2E4960"/>
<path d="M38.1679 27.2513C33.1266 24.4418 29.4999 29.0705 29.4999 29.0705C29.4999 29.0705 25.8735 24.4418 20.832 27.2513C15.0237 30.4893 16.753 44.2336 29.4999 48.5239C42.2469 44.2334 43.976 30.4893 38.1679 27.2513Z" fill="#2E4960"/>
</g>
<defs>
<clipPath id="clip0_1_2848">
<rect width="59" height="59" fill="white"/>
</clipPath>
</defs>
</svg>
