<svg width="54" height="54" viewBox="0 0 54 54" fill="none" xmlns="http://www.w3.org/2000/svg">
<path d="M48.0432 48.861C39.7803 55.6063 13.9796 55.6063 5.88528 48.861C-2.37767 42.1157 -1.53453 13.2797 5.88528 5.69131C13.3051 -1.8971 40.6234 -1.8971 48.0432 5.69131C55.463 13.2797 56.3062 42.1158 48.0432 48.861Z" fill="#2E4960"/>
<path d="M42.9847 26.9391C42.9847 28.6254 41.6356 29.9744 39.9493 29.9744H29.8315V40.0923C29.8315 41.7786 28.4824 43.1277 26.7961 43.1277C25.1098 43.1277 23.7608 41.7786 23.7608 40.0923V29.9744H13.6428C11.9565 29.9744 10.6074 28.6254 10.6074 26.9391C10.6074 25.2528 11.9565 23.9037 13.6428 23.9037H23.7606V13.7859C23.7606 12.0996 25.1097 10.7505 26.796 10.7505C28.4823 10.7505 29.8314 12.0996 29.8314 13.7859V23.9037H39.9492C41.6356 23.9037 42.9847 25.2527 42.9847 26.9391Z" fill="white"/>
</svg>
